<svg width="50" height="40" viewBox="0 0 50 40" fill="none" xmlns="http://www.w3.org/2000/svg">
<mask id="path-1-inside-1_101_3" fill="white">
<path d="M0 10C0 4.47715 4.47715 0 10 0H39.697C45.2198 0 49.697 4.47715 49.697 10V40H0V10Z"/>
</mask>
<path d="M0 10C0 4.47715 4.47715 0 10 0H39.697C45.2198 0 49.697 4.47715 49.697 10V40H0V10Z" fill="white" fill-opacity="0.1"/>
<path d="M-6 10C-6 1.16344 1.16344 -6 10 -6H39.697C48.5335 -6 55.697 1.16344 55.697 10H43.697C43.697 7.79086 41.9061 6 39.697 6H10C7.79086 6 6 7.79086 6 10H-6ZM49.697 40H0H49.697ZM-6 40V10C-6 1.16344 1.16344 -6 10 -6V6C7.79086 6 6 7.79086 6 10V40H-6ZM39.697 -6C48.5335 -6 55.697 1.16344 55.697 10V40H43.697V10C43.697 7.79086 41.9061 6 39.697 6V-6Z" fill="#999999" mask="url(#path-1-inside-1_101_3)"/>
</svg>
